# xmcd
#
# Track frame offsets:
#	150
#	15134
#	40134
#	57834
#	81794
#	96014
#	118557
#	135860
#	151999
#	170800
#
# Disc length: 2598 seconds
#
# Revision: 1
# Processed by: cddbd v1.5.2PL0 Copyright (c) Steve Scherf et al.
# Submitted via: audiograbber 1.83.01
#
DISCID=6b0a240a
DTITLE=Steve White - After The Holidays
DYEAR=2008
DGENRE=Folk-Rock
TTITLE0=Back At The Bottom
TTITLE1=Bluestime
TTITLE2=Faial
TTITLE3=After The Holdays
TTITLE4=Love Is A Fire
TTITLE5=Band Intro
TTITLE6=One of These Days
TTITLE7=Outlaw Town
TTITLE8=Small Town Girl
TTITLE9=Christmas Eve
EXTD=
EXTT0=
EXTT1=
EXTT2=
EXTT3=
EXTT4=
EXTT5=
EXTT6=
EXTT7=
EXTT8=
EXTT9=
PLAYORDER=
